<?xml version="1.0" encoding="UTF-8"?>
<!DOCTYPE svg PUBLIC "-//W3C//DTD SVG 1.1//EN" "http://www.w3.org/Graphics/SVG/1.1/DTD/svg11.dtd">
<svg xmlns="http://www.w3.org/2000/svg" version="1.1" width="428px" height="428px" style="shape-rendering:geometricPrecision; text-rendering:geometricPrecision; image-rendering:optimizeQuality; fill-rule:evenodd; clip-rule:evenodd" xmlns:xlink="http://www.w3.org/1999/xlink">
<g><path style="opacity:0.6" fill="#000000" d="M 202.5,-0.5 C 209.833,-0.5 217.167,-0.5 224.5,-0.5C 309.801,7.30691 371.301,49.6402 409,126.5C 419.284,150.966 425.451,176.3 427.5,202.5C 427.5,209.833 427.5,217.167 427.5,224.5C 419.693,309.801 377.36,371.301 300.5,409C 276.034,419.284 250.7,425.451 224.5,427.5C 217.167,427.5 209.833,427.5 202.5,427.5C 117.199,419.693 55.6994,377.36 18,300.5C 7.7159,276.034 1.54923,250.7 -0.5,224.5C -0.5,217.167 -0.5,209.833 -0.5,202.5C 7.30691,117.199 49.6402,55.6994 126.5,18C 150.966,7.7159 176.3,1.54923 202.5,-0.5 Z"/></g>
<g><path style="opacity:1" fill="#fefefe" d="M 174.5,126.5 C 180.909,126.183 187.243,126.683 193.5,128C 228.664,148.081 263.664,168.414 298.5,189C 313.068,205.246 313.068,221.58 298.5,238C 263.664,258.586 228.664,278.919 193.5,299C 171.035,304.69 156.535,296.523 150,274.5C 149.333,233.5 149.333,192.5 150,151.5C 153.696,138.639 161.862,130.306 174.5,126.5 Z"/></g>
</svg>
